<svg width="24" height="25" viewBox="0 0 24 25" fill="none" xmlns="http://www.w3.org/2000/svg">
<path d="M16 4.99561H18C18.5304 4.99561 19.0391 5.20632 19.4142 5.58139C19.7893 5.95646 20 6.46517 20 6.99561V20.9956C20 21.526 19.7893 22.0347 19.4142 22.4098C19.0391 22.7849 18.5304 22.9956 18 22.9956H6C5.46957 22.9956 4.96086 22.7849 4.58579 22.4098C4.21071 22.0347 4 21.526 4 20.9956V6.99561C4 6.46517 4.21071 5.95646 4.58579 5.58139C4.96086 5.20632 5.46957 4.99561 6 4.99561H8" stroke="#828282" stroke-width="2" stroke-linecap="round" stroke-linejoin="round"/>
<path d="M15 2.99561H9C8.44772 2.99561 8 3.44332 8 3.99561V5.99561C8 6.54789 8.44772 6.99561 9 6.99561H15C15.5523 6.99561 16 6.54789 16 5.99561V3.99561C16 3.44332 15.5523 2.99561 15 2.99561Z" stroke="#828282" stroke-width="2" stroke-linecap="round" stroke-linejoin="round"/>
</svg>
