<svg width="27" height="28" viewBox="0 0 27 28" fill="none" xmlns="http://www.w3.org/2000/svg">
<path opacity="0.4" d="M18.085 2.75H21.8942C23.4717 2.75 24.75 4.03908 24.75 5.62996V9.47134C24.75 11.0622 23.4717 12.3513 21.8942 12.3513H18.085C16.5074 12.3513 15.2291 11.0622 15.2291 9.47134V5.62996C15.2291 4.03908 16.5074 2.75 18.085 2.75Z" fill="#BDBDBD"/>
<path fill-rule="evenodd" clip-rule="evenodd" d="M5.10584 2.75H8.91505C10.4926 2.75 11.7709 4.03908 11.7709 5.62996V9.47134C11.7709 11.0622 10.4926 12.3513 8.91505 12.3513H5.10584C3.52829 12.3513 2.25 11.0622 2.25 9.47134V5.62996C2.25 4.03908 3.52829 2.75 5.10584 2.75ZM5.10584 15.6487H8.91505C10.4926 15.6487 11.7709 16.9378 11.7709 18.5287V22.37C11.7709 23.9598 10.4926 25.25 8.91505 25.25H5.10584C3.52829 25.25 2.25 23.9598 2.25 22.37V18.5287C2.25 16.9378 3.52829 15.6487 5.10584 15.6487ZM21.8942 15.6487H18.085C16.5074 15.6487 15.2291 16.9378 15.2291 18.5287V22.37C15.2291 23.9598 16.5074 25.25 18.085 25.25H21.8942C23.4717 25.25 24.75 23.9598 24.75 22.37V18.5287C24.75 16.9378 23.4717 15.6487 21.8942 15.6487Z" fill="#BDBDBD"/>
</svg>
