<svg width="27" height="28" viewBox="0 0 27 28" fill="none" xmlns="http://www.w3.org/2000/svg">
<path d="M22.2407 13.601C21.4189 12.6413 21.0455 11.8097 21.0455 10.3968V9.9164C21.0455 8.07523 20.6217 6.88895 19.7004 5.70267C18.2804 3.86037 15.8899 2.75 13.5498 2.75H13.4502C11.1593 2.75 8.8437 3.80938 7.39912 5.5769C6.4275 6.78698 5.95454 8.02424 5.95454 9.9164V10.3968C5.95454 11.8097 5.6057 12.6413 4.7593 13.601C4.13652 14.308 3.9375 15.2167 3.9375 16.2002C3.9375 17.1848 4.26063 18.1172 4.90912 18.8752C5.75552 19.7839 6.95076 20.364 8.17172 20.4649C9.93943 20.6666 11.7071 20.7425 13.5006 20.7425C15.2929 20.7425 17.0606 20.6156 18.8294 20.4649C20.0492 20.364 21.2445 19.7839 22.0909 18.8752C22.7383 18.1172 23.0625 17.1848 23.0625 16.2002C23.0625 15.2167 22.8635 14.308 22.2407 13.601Z" fill="#BDBDBD"/>
<path opacity="0.4" d="M15.7597 22.1319C15.1973 22.0118 11.7704 22.0118 11.208 22.1319C10.7272 22.2429 10.2073 22.5013 10.2073 23.0678C10.2352 23.6082 10.5516 24.0852 10.9899 24.3878L10.9888 24.3889C11.5557 24.8308 12.221 25.1118 12.9175 25.2126C13.2887 25.2636 13.6667 25.2613 14.0513 25.2126C14.7467 25.1118 15.412 24.8308 15.9789 24.3889L15.9778 24.3878C16.4161 24.0852 16.7325 23.6082 16.7604 23.0678C16.7604 22.5013 16.2405 22.2429 15.7597 22.1319Z" fill="#BDBDBD"/>
</svg>
