<svg width="24" height="25" viewBox="0 0 24 25" fill="none" xmlns="http://www.w3.org/2000/svg">
<g clip-path="url(#clip0_466_109433)">
<path d="M12 15.9956C13.6569 15.9956 15 14.6525 15 12.9956C15 11.3388 13.6569 9.99561 12 9.99561C10.3431 9.99561 9 11.3388 9 12.9956C9 14.6525 10.3431 15.9956 12 15.9956Z" stroke="#828282" stroke-width="2" stroke-linecap="round" stroke-linejoin="round"/>
<path d="M19.286 16.9562C19.2272 16.6318 19.2669 16.2972 19.4 15.9956C19.5268 15.6998 19.7372 15.4476 20.0055 15.2699C20.2738 15.0922 20.5882 14.9969 20.91 14.9956H21C21.5304 14.9956 22.0391 14.7849 22.4142 14.4098C22.7893 14.0347 23 13.526 23 12.9956C23 12.4652 22.7893 11.9565 22.4142 11.5814C22.0391 11.2063 21.5304 10.9956 21 10.9956H20.83C20.5082 10.9943 20.1938 10.899 19.9255 10.7213C19.6572 10.5436 19.4468 10.2914 19.32 9.99561V9.91561C19.1869 9.61399 19.1472 9.27941 19.206 8.95502C19.2648 8.63062 19.4195 8.33128 19.65 8.09561L19.71 8.03561C19.896 7.84986 20.0435 7.62928 20.1441 7.38649C20.2448 7.14369 20.2966 6.88344 20.2966 6.62061C20.2966 6.35777 20.2448 6.09752 20.1441 5.85472C20.0435 5.61193 19.896 5.39135 19.71 5.20561C19.5243 5.01965 19.3037 4.87213 19.0609 4.77149C18.8181 4.67084 18.5578 4.61903 18.295 4.61903C18.0322 4.61903 17.7719 4.67084 17.5291 4.77149C17.2863 4.87213 17.0657 5.01965 16.88 5.20561L16.82 5.26561C16.5843 5.49614 16.285 5.65079 15.9606 5.70961C15.6362 5.76843 15.3016 5.72872 15 5.59561C14.7042 5.46884 14.452 5.25836 14.2743 4.99007C14.0966 4.72178 14.0013 4.40739 14 4.08561V3.99561C14 3.46517 13.7893 2.95646 13.4142 2.58139C13.0391 2.20632 12.5304 1.99561 12 1.99561C11.4696 1.99561 10.9609 2.20632 10.5858 2.58139C10.2107 2.95646 10 3.46517 10 3.99561V4.16561C9.99872 4.48739 9.90337 4.80178 9.72569 5.07007C9.54802 5.33836 9.29577 5.54884 9 5.67561H8.92C8.61838 5.80872 8.28381 5.84843 7.95941 5.78961C7.63502 5.73079 7.33568 5.57614 7.1 5.34561L7.04 5.28561C6.85425 5.09965 6.63368 4.95213 6.39088 4.85149C6.14808 4.75084 5.88783 4.69903 5.625 4.69903C5.36217 4.69903 5.10192 4.75084 4.85912 4.85149C4.61632 4.95213 4.39575 5.09965 4.21 5.28561C4.02405 5.47135 3.87653 5.69193 3.77588 5.93472C3.67523 6.17752 3.62343 6.43777 3.62343 6.70061C3.62343 6.96344 3.67523 7.22369 3.77588 7.46649C3.87653 7.70928 4.02405 7.92986 4.21 8.11561L4.27 8.17561C4.50054 8.41128 4.65519 8.71062 4.714 9.03502C4.77282 9.35941 4.73312 9.69399 4.6 9.99561C4.48572 10.3063 4.28059 10.5755 4.0113 10.7681C3.742 10.9607 3.42099 11.0679 3.09 11.0756H3C2.46957 11.0756 1.96086 11.2863 1.58579 11.6614C1.21071 12.0365 1 12.5452 1 13.0756C1 13.606 1.21071 14.1147 1.58579 14.4898C1.96086 14.8649 2.46957 15.0756 3 15.0756H3.17C3.49179 15.0769 3.80618 15.1722 4.07447 15.3499C4.34276 15.5276 4.55324 15.7798 4.68 16.0756C4.81312 16.3772 4.85282 16.7118 4.794 17.0362C4.73519 17.3606 4.58054 17.6599 4.35 17.8956L4.29 17.9556C4.10405 18.1413 3.95653 18.3619 3.85588 18.6047C3.75523 18.8475 3.70343 19.1078 3.70343 19.3706C3.70343 19.6334 3.75523 19.8937 3.85588 20.1365C3.95653 20.3793 4.10405 20.5999 4.29 20.7856C4.47575 20.9716 4.69632 21.1191 4.93912 21.2197C5.18192 21.3204 5.44217 21.3722 5.705 21.3722C5.96783 21.3722 6.22808 21.3204 6.47088 21.2197C6.71368 21.1191 6.93425 20.9716 7.12 20.7856L7.18 20.7256C7.41568 20.4951 7.71502 20.3404 8.03941 20.2816C8.36381 20.2228 8.69838 20.2625 9 20.3956C9.31074 20.5099 9.5799 20.715 9.77251 20.9843C9.96512 21.2536 10.0723 21.5746 10.08 21.9056V21.9956C10.08 22.526 10.2907 23.0347 10.6658 23.4098C11.0409 23.7849 11.5496 23.9956 12.08 23.9956C12.6104 23.9956 13.1191 23.7849 13.4942 23.4098C13.8693 23.0347 14.08 22.526 14.08 21.9956V21.8256C14.0813 21.5038 14.1766 21.1894 14.3543 20.9211C14.532 20.6529 14.7842 20.4424 15.08 20.3156C15.3816 20.1825 15.7162 20.1428 16.0406 20.2016C16.365 20.2604 16.6643 20.4151 16.9 20.6456L16.96 20.7056C17.1457 20.8916 17.3663 21.0391 17.6091 21.1397C17.8519 21.2404 18.1122 21.2922 18.375 21.2922C18.6378 21.2922 18.8981 21.2404 19.1409 21.1397C19.3837 21.0391 19.6043 20.8916 19.79 20.7056C19.976 20.5199 20.1235 20.2993 20.2241 20.0565C20.3248 19.8137 20.3766 19.5534 20.3766 19.2906C20.3766 19.0278 20.3248 18.7675 20.2241 18.5247C20.1235 18.2819 19.976 18.0613 19.79 17.8756L19.73 17.8156C19.4995 17.5799 19.3448 17.2806 19.286 16.9562Z" stroke="#828282" stroke-width="2" stroke-linecap="round" stroke-linejoin="round"/>
</g>
<defs>
<clipPath id="clip0_466_109433">
<rect width="24" height="24" fill="white" transform="translate(0 0.995605)"/>
</clipPath>
</defs>
</svg>
