<svg width="24" height="25" viewBox="0 0 24 25" fill="none" xmlns="http://www.w3.org/2000/svg">
<path d="M16 3.99561H1V16.9956H16V3.99561Z" stroke="#828282" stroke-width="2" stroke-linecap="round" stroke-linejoin="round"/>
<path d="M20 8.99561H16V16.9956H23V11.9956L20 8.99561Z" stroke="#828282" stroke-width="2" stroke-linecap="round" stroke-linejoin="round"/>
<path d="M5.5 21.9956C6.88071 21.9956 8 20.8763 8 19.4956C8 18.1149 6.88071 16.9956 5.5 16.9956C4.11929 16.9956 3 18.1149 3 19.4956C3 20.8763 4.11929 21.9956 5.5 21.9956Z" stroke="#828282" stroke-width="2" stroke-linecap="round" stroke-linejoin="round"/>
<path d="M18.5 21.9956C19.8807 21.9956 21 20.8763 21 19.4956C21 18.1149 19.8807 16.9956 18.5 16.9956C17.1193 16.9956 16 18.1149 16 19.4956C16 20.8763 17.1193 21.9956 18.5 21.9956Z" stroke="#828282" stroke-width="2" stroke-linecap="round" stroke-linejoin="round"/>
</svg>
