<svg width="64" height="64" viewBox="0 0 64 64" fill="none" xmlns="http://www.w3.org/2000/svg">
<path d="M21.2411 38.6394L14.2275 31.2083C14.2275 31.2083 11.9398 28.6534 8.28269 28.6534H0C3.67377 28.6367 5.94483 31.2083 5.94483 31.2083L16.9996 42.8475C16.9996 42.8475 21.9091 48.3582 28.9226 43.1815C28.9226 43.1815 26.1005 43.8328 21.2411 38.6394Z" fill="#21428D"/>
<path d="M54.1882 18.6173C53.921 18.6173 52.6018 18.634 51.7 19.1016C50.5311 19.686 49.7797 20.2705 49.7797 20.2705L20.9238 41.2444C20.9238 41.2444 22.7607 43.432 25.1153 41.9458C27.5533 43.4821 28.9226 43.1648 28.9226 43.1648C28.8391 43.2316 53.4367 25.3637 53.4367 25.3637H53.4701L60.6841 20.1202C60.6841 20.1202 61.4522 19.5357 62.6045 18.9513C62.9551 18.7676 63.3559 18.6674 63.7567 18.6006H54.1882V18.6173Z" fill="#1AA6DF"/>
</svg>
