<svg width="166" height="52" viewBox="0 0 166 52" fill="none" xmlns="http://www.w3.org/2000/svg">
<path d="M21.9872 32.3874L14.9736 24.9564C14.9736 24.9564 12.6859 22.4014 9.02878 22.4014H0.746094C4.41987 22.3847 6.69093 24.9564 6.69093 24.9564L17.7456 36.5956C17.7456 36.5956 22.6551 42.1062 29.6687 36.9296C29.6687 36.9296 26.8466 37.5808 21.9872 32.3874Z" fill="#21428D"/>
<path d="M54.9343 12.3653C54.6671 12.3653 53.3479 12.382 52.4461 12.8496C51.2772 13.4341 50.5258 14.0185 50.5258 14.0185L21.6699 34.9924C21.6699 34.9924 23.5068 37.18 25.8614 35.6938C28.2994 37.2301 29.6687 36.9128 29.6687 36.9128C29.5852 36.9796 54.1828 19.1117 54.1828 19.1117H54.2162L61.4302 13.8682C61.4302 13.8682 62.1983 13.2838 63.3506 12.6993C63.7012 12.5156 64.102 12.4154 64.5028 12.3486H54.9343V12.3653Z" fill="#1AA6DF"/>
<path d="M75.3308 34L80.1589 11.1562H86.5339C88.3881 11.1562 89.8725 11.4375 90.9871 12C92.1121 12.5521 92.9246 13.3281 93.4246 14.3281C93.935 15.3281 94.1902 16.4896 94.1902 17.8125C94.1902 19.1667 93.9402 20.349 93.4402 21.3594C92.9402 22.3698 92.2371 23.2135 91.3308 23.8906C90.435 24.5573 89.3829 25.0573 88.1746 25.3906C86.9662 25.7135 85.6537 25.875 84.2371 25.875H81.7996L80.0964 34H75.3308ZM82.6589 21.9062H84.6121C85.56 21.9062 86.3881 21.75 87.0964 21.4375C87.8152 21.125 88.3725 20.6719 88.7683 20.0781C89.1746 19.4844 89.3777 18.7708 89.3777 17.9375C89.3777 16.9792 89.1225 16.2708 88.6121 15.8125C88.1121 15.3542 87.3569 15.125 86.3464 15.125H84.0964L82.6589 21.9062ZM106.671 34.3125C105.099 34.3125 103.77 34.0469 102.687 33.5156C101.614 32.9844 100.802 32.2396 100.25 31.2812C99.7079 30.3125 99.4371 29.1823 99.4371 27.8906C99.4371 27.5573 99.4527 27.1823 99.4839 26.7656C99.5256 26.3385 99.5881 25.9427 99.6714 25.5781L102.734 11.1562H107.5L104.468 25.5156C104.395 25.8802 104.333 26.2292 104.281 26.5625C104.229 26.8958 104.203 27.1979 104.203 27.4688C104.203 28.3646 104.447 29.0521 104.937 29.5312C105.427 30.0104 106.166 30.25 107.156 30.25C108.083 30.25 108.849 30.0729 109.453 29.7188C110.067 29.3646 110.562 28.8333 110.937 28.125C111.312 27.4167 111.609 26.5365 111.828 25.4844L114.859 11.1562H119.64L116.5 25.9375C116.156 27.5521 115.593 28.9948 114.812 30.2656C114.041 31.526 112.994 32.5156 111.671 33.2344C110.349 33.9531 108.682 34.3125 106.671 34.3125Z" fill="#00A9E0"/>
<path d="M120.637 34L132.606 11.1562H138.434L140.731 34H136.09L135.715 28.5625H128.325L125.637 34H120.637ZM130.278 24.5H135.481L135.075 18.6094C135.033 17.9844 134.991 17.3542 134.95 16.7188C134.908 16.0833 134.897 15.4323 134.918 14.7656H134.84C134.642 15.3385 134.413 15.9115 134.153 16.4844C133.892 17.0573 133.601 17.6667 133.278 18.3125L130.278 24.5ZM152.056 34.3125C150.91 34.3125 149.858 34.1875 148.9 33.9375C147.952 33.6875 147.15 33.3438 146.493 32.9062V28.625C147.441 29.1562 148.368 29.5729 149.275 29.875C150.191 30.1667 151.129 30.3125 152.087 30.3125C152.618 30.3125 153.108 30.2656 153.556 30.1719C154.014 30.0677 154.41 29.9115 154.743 29.7031C155.077 29.4948 155.337 29.2344 155.525 28.9219C155.712 28.6094 155.806 28.2448 155.806 27.8281C155.806 27.2344 155.686 26.7396 155.446 26.3438C155.217 25.9375 154.894 25.5625 154.478 25.2188C154.071 24.875 153.597 24.5052 153.056 24.1094C152.42 23.651 151.801 23.1302 151.196 22.5469C150.603 21.9635 150.113 21.2865 149.728 20.5156C149.342 19.7344 149.15 18.8229 149.15 17.7812C149.15 16.7604 149.332 15.8281 149.696 14.9844C150.071 14.1406 150.603 13.4062 151.29 12.7812C151.978 12.1562 152.801 11.6771 153.759 11.3438C154.728 11 155.806 10.8281 156.993 10.8281C158.17 10.8281 159.259 10.9583 160.259 11.2188C161.269 11.4688 162.249 11.8542 163.196 12.375L161.493 16.0156C160.681 15.6302 159.905 15.3438 159.165 15.1562C158.436 14.9583 157.712 14.8594 156.993 14.8594C156.566 14.8594 156.17 14.9219 155.806 15.0469C155.452 15.1615 155.139 15.3333 154.868 15.5625C154.608 15.7812 154.405 16.0469 154.259 16.3594C154.113 16.6719 154.04 17.026 154.04 17.4219C154.04 17.9635 154.15 18.4271 154.368 18.8125C154.597 19.1979 154.92 19.5573 155.337 19.8906C155.764 20.2135 156.275 20.5729 156.868 20.9688C157.712 21.5208 158.41 22.1146 158.962 22.75C159.525 23.375 159.941 24.0573 160.212 24.7969C160.493 25.5365 160.634 26.3542 160.634 27.25C160.634 28.4479 160.41 29.4896 159.962 30.375C159.514 31.2604 158.894 31.9948 158.103 32.5781C157.321 33.1615 156.41 33.599 155.368 33.8906C154.337 34.1719 153.233 34.3125 152.056 34.3125Z" fill="#21428D"/>
<path d="M74.5027 50.0521L75.6186 44.5317H76.9298C77.3482 44.5317 77.6551 44.633 77.8783 44.8103C78.0457 44.9876 78.1573 45.2408 78.1573 45.57C78.1573 45.7726 78.1294 46.0005 78.1015 46.2031C77.962 46.8361 77.7667 47.2919 77.5156 47.5198C77.2646 47.7477 76.874 47.8744 76.4276 47.8744H75.8418L75.4233 50.0268L74.5027 50.0521ZM75.9534 47.1653H76.4276C76.6508 47.1653 76.8182 47.0894 76.9298 46.9374C77.0414 46.7855 77.153 46.5576 77.2088 46.2031C77.2367 46.0005 77.2646 45.8485 77.2646 45.7219C77.2646 45.57 77.2367 45.4434 77.153 45.3674C77.0693 45.2914 76.9577 45.2661 76.7624 45.2661H76.316L75.9534 47.1653Z" fill="#233E95"/>
<path d="M78.1854 49.6725C78.1017 49.5206 78.0459 49.3433 78.0459 49.0901C78.0459 48.8875 78.1017 48.5077 78.2133 48.0012C78.3249 47.4948 78.4086 47.1149 78.4923 46.8617C78.576 46.6085 78.6875 46.4312 78.827 46.2793C79.0502 46.026 79.385 45.8994 79.8314 45.8994C80.2219 45.8994 80.5009 46.0007 80.6683 46.2539C80.7799 46.4059 80.8357 46.6085 80.8357 46.887C80.8357 47.1402 80.7799 47.5961 80.6404 48.2291H78.9665C78.8828 48.6343 78.8549 48.9128 78.8549 49.0648C78.8549 49.1661 78.8828 49.2674 78.9386 49.318C78.9944 49.3687 79.0502 49.394 79.1618 49.394C79.2734 49.394 79.385 49.3687 79.4687 49.2927C79.5524 49.2167 79.6361 49.0648 79.6919 48.8369H80.5009C80.4172 49.2167 80.2777 49.4953 80.0824 49.7232C79.8592 49.9764 79.5245 50.103 79.0781 50.103C78.6596 50.103 78.3528 49.9511 78.1854 49.6725ZM79.0781 47.6214H79.9429C79.9987 47.3175 80.0545 47.0896 80.0545 46.9123C80.0545 46.6844 79.9429 46.5578 79.7477 46.5578C79.6082 46.5578 79.4966 46.6085 79.4129 46.7351C79.2734 46.8617 79.1897 47.1656 79.0781 47.6214Z" fill="#233E95"/>
<path d="M80.9751 50.027L81.7841 45.9247H82.5653L82.5095 46.2286C82.6211 46.1019 82.7327 46.026 82.8163 45.9753C82.9558 45.8994 83.0953 45.874 83.2348 45.874C83.5417 45.874 83.7649 45.9753 83.9044 46.2032C83.988 46.3298 84.0159 46.5071 84.0438 46.6844C84.0438 46.7603 84.0159 46.8869 83.988 47.1149L83.4022 50.0017H82.5932L83.179 47.1149C83.2069 47.0136 83.2069 46.9376 83.2069 46.8616C83.2069 46.7603 83.179 46.6844 83.1232 46.6337C83.0674 46.5831 82.9837 46.5577 82.8721 46.5577C82.5932 46.5577 82.4258 46.7603 82.37 47.1149L81.7841 50.0017L80.9751 50.027Z" fill="#233E95"/>
<path d="M84.5181 47.8491C84.6297 47.292 84.7413 46.8869 84.8249 46.659C84.9086 46.4311 85.0202 46.2538 85.1318 46.1525C85.355 45.9499 85.6061 45.8486 85.913 45.8486C86.0803 45.8486 86.2198 45.874 86.3314 45.9499C86.443 46.0259 86.4988 46.1019 86.5546 46.2032L86.6104 45.8993H87.3915L86.5546 50.1029C86.443 50.6093 86.2756 50.9892 86.0524 51.1918C85.8293 51.3943 85.5224 51.4703 85.1318 51.4956C84.8249 51.4956 84.546 51.4197 84.3786 51.2424C84.1833 51.0652 84.0996 50.8626 84.0996 50.5587C84.0996 50.4574 84.0996 50.3561 84.1275 50.2801H84.9365C84.9365 50.3308 84.9086 50.4068 84.9086 50.4827C84.9086 50.6853 85.0202 50.7866 85.2434 50.7866C85.355 50.7866 85.4666 50.736 85.5503 50.66C85.634 50.584 85.7177 50.4068 85.7735 50.1282L85.8851 49.5458C85.8293 49.6217 85.7456 49.6977 85.634 49.7484C85.4945 49.8243 85.355 49.8497 85.2155 49.8497C84.9086 49.8497 84.6855 49.7484 84.5739 49.5458C84.4902 49.3938 84.4344 49.2166 84.4344 49.014C84.3507 48.7861 84.4065 48.4062 84.5181 47.8491ZM85.3271 47.8491C85.2434 48.305 85.1876 48.6341 85.1876 48.8114C85.1876 48.938 85.2155 49.014 85.2713 49.0646C85.3271 49.1406 85.4108 49.1659 85.5224 49.1659C85.634 49.1659 85.7456 49.1153 85.8014 49.0393C85.8851 48.9633 85.9688 48.8114 85.9967 48.6088L86.3035 47.0388C86.3314 46.9628 86.3314 46.8869 86.3314 46.8362C86.3314 46.7349 86.3035 46.659 86.2477 46.6083C86.1919 46.5577 86.1082 46.5323 86.0245 46.5323C85.913 46.5323 85.8014 46.583 85.7177 46.659C85.6061 46.7856 85.4666 47.1654 85.3271 47.8491Z" fill="#233E95"/>
<path d="M87.5308 49.6976C87.4472 49.571 87.3914 49.3938 87.3914 49.1659C87.3914 49.0646 87.4193 48.938 87.4472 48.7607C87.5308 48.3809 87.6982 48.077 88.0051 47.8491C88.2283 47.6718 88.5352 47.5958 88.9536 47.5958H89.3721L89.4837 47.0641C89.5116 46.9881 89.5116 46.9121 89.5116 46.8362C89.5116 46.6336 89.4 46.507 89.2047 46.5323C89.0931 46.5323 88.9815 46.5576 88.8978 46.6336C88.8141 46.7349 88.7304 46.8615 88.7026 47.0387H87.8935C87.9772 46.6082 88.1446 46.3044 88.3678 46.1271C88.591 45.9245 88.8699 45.8486 89.2605 45.8232C89.679 45.8232 89.9579 45.9245 90.1253 46.1271C90.2648 46.2791 90.3206 46.4816 90.3206 46.7349C90.3206 46.8615 90.2927 46.9881 90.2648 47.14L89.7069 49.9762H88.9257L89.0094 49.647C88.9257 49.7736 88.8141 49.8496 88.7026 49.9256C88.5631 50.0268 88.3957 50.0522 88.2283 50.0522C87.8935 50.0268 87.6703 49.9256 87.5308 49.6976ZM88.2283 48.9633C88.2283 49.2165 88.3399 49.3431 88.5631 49.3431C88.7026 49.3431 88.8141 49.2925 88.8978 49.1912C88.9815 49.0899 89.0652 48.938 89.0931 48.786L89.2326 48.1529H88.9815C88.7862 48.1529 88.6189 48.2036 88.5073 48.2796C88.4236 48.3555 88.3678 48.4568 88.312 48.5834C88.2562 48.7101 88.2283 48.8367 88.2283 48.9633Z" fill="#233E95"/>
<path d="M90.7671 47.9004C90.8787 47.318 90.9902 46.9128 91.0739 46.6596C91.1576 46.4063 91.2692 46.2291 91.3808 46.1278C91.604 45.9252 91.8551 45.8239 92.1619 45.8239C92.3293 45.8239 92.4688 45.8492 92.5804 45.9252C92.6641 46.0012 92.7478 46.0518 92.7757 46.1278L93.1105 44.4312H93.9195L92.8036 49.9515H92.0225L92.0783 49.6477C91.9946 49.749 91.9109 49.8249 91.7993 49.9009C91.6598 49.9769 91.5203 50.0022 91.3808 50.0022C91.0739 50.0022 90.8508 49.9009 90.7113 49.6983C90.6276 49.5464 90.5718 49.3691 90.5718 49.1665C90.5718 48.9133 90.6276 48.5081 90.7671 47.9004ZM91.5761 47.9004C91.4645 48.4322 91.4087 48.7867 91.4087 48.964C91.4087 49.0906 91.4366 49.1665 91.4924 49.2172C91.5482 49.2932 91.6319 49.3185 91.7156 49.3185C91.8272 49.3185 91.9388 49.2932 92.0225 49.2172C92.134 49.1159 92.1898 48.964 92.2177 48.7867L92.5804 47.0394C92.6083 46.9634 92.6083 46.8875 92.6083 46.8368C92.6083 46.7355 92.5804 46.6596 92.5246 46.5836C92.4688 46.533 92.413 46.5076 92.3014 46.5076C92.1898 46.5076 92.0783 46.5583 91.9946 46.6342C91.8551 46.7355 91.7156 47.166 91.5761 47.9004Z" fill="#233E95"/>
<path d="M93.7801 49.6469C93.6964 49.5203 93.6406 49.343 93.6406 49.1151C93.6406 49.0138 93.6685 48.8872 93.6964 48.7099C93.7801 48.3301 93.9475 48.0262 94.2544 47.7983C94.4776 47.621 94.7844 47.5451 95.2029 47.5451H95.6214L95.733 47.0133C95.7608 46.9373 95.7608 46.8613 95.7608 46.7854C95.7608 46.5828 95.6493 46.4562 95.454 46.4815C95.3424 46.4815 95.2308 46.5068 95.1471 46.5828C95.0634 46.6841 94.9797 46.8107 94.9518 46.988H94.1428C94.2265 46.5575 94.3939 46.2536 94.617 46.0763C94.8402 45.8738 95.1192 45.7978 95.5098 45.7725C95.9282 45.7725 96.2072 45.8738 96.3746 46.0763C96.5141 46.2283 96.5699 46.4309 96.5699 46.6841C96.5699 46.8107 96.542 46.9373 96.5141 47.0893L95.9561 49.9254H95.175L95.2587 49.5962C95.175 49.7228 95.0634 49.7988 94.9518 49.8748C94.8123 49.9761 94.6449 50.0014 94.4776 50.0014C94.1707 50.0014 93.9196 49.8748 93.7801 49.6469ZM94.4776 48.9378C94.4776 49.1911 94.5891 49.3177 94.8123 49.3177C94.9518 49.3177 95.0634 49.267 95.1471 49.1657C95.2308 49.0644 95.3145 48.9125 95.3424 48.7606L95.4819 48.1275H95.2308C95.0355 48.1275 94.8681 48.1781 94.7565 48.2541C94.6728 48.3301 94.617 48.4314 94.5612 48.558C94.5055 48.6846 94.4776 48.7859 94.4776 48.9378Z" fill="#233E95"/>
<path d="M96.8765 49.6225C96.7929 49.4958 96.7371 49.3186 96.7371 49.0907C96.7371 48.9894 96.765 48.8628 96.7929 48.6855C96.8766 48.3057 97.0439 48.0018 97.3508 47.7739C97.574 47.5966 97.8809 47.5207 98.2993 47.5207H98.7178L98.8294 46.9889C98.8573 46.9129 98.8573 46.8369 98.8573 46.761C98.8573 46.5584 98.7457 46.4318 98.5504 46.4571C98.4388 46.4571 98.3272 46.4824 98.2435 46.5584C98.1598 46.6597 98.0762 46.7863 98.0483 46.9636H97.2392C97.3229 46.5331 97.4903 46.2292 97.7135 46.0519C97.9367 45.8493 98.2156 45.7734 98.6062 45.748C99.0247 45.748 99.3036 45.8493 99.471 46.0519C99.6105 46.2039 99.6663 46.4064 99.6663 46.6597C99.6663 46.7863 99.6384 46.9129 99.6105 47.0648L99.0526 49.901H98.2714L98.3551 49.5718C98.2714 49.6984 98.1598 49.7744 98.0483 49.8504C97.9088 49.9263 97.7414 49.977 97.574 49.977C97.2392 49.977 97.016 49.8504 96.8765 49.6225ZM97.574 48.9134C97.574 49.1666 97.6856 49.2933 97.9088 49.2933C98.0483 49.2933 98.1598 49.2426 98.2435 49.1413C98.3272 49.04 98.4109 48.8881 98.4388 48.7362L98.5783 48.1031H98.3272C98.1319 48.1031 97.9646 48.1537 97.853 48.2297C97.7693 48.3057 97.7135 48.407 97.6577 48.5336C97.6019 48.6349 97.574 48.7868 97.574 48.9134Z" fill="#233E95"/>
<path d="M99.8337 49.9001L100.643 45.8231H101.424L101.368 46.127C101.48 46.0004 101.591 45.9244 101.675 45.8738C101.814 45.7978 101.954 45.7725 102.093 45.7725C102.4 45.7725 102.624 45.8738 102.763 46.1017C102.847 46.2283 102.875 46.4055 102.902 46.5828C102.902 46.6588 102.875 46.7854 102.847 47.0133L102.261 49.9001H101.452L102.038 47.0133C102.066 46.912 102.066 46.836 102.066 46.7601C102.066 46.6588 102.038 46.5828 101.982 46.5321C101.926 46.4815 101.842 46.4562 101.731 46.4562C101.452 46.4562 101.284 46.6588 101.229 47.0133L100.643 49.9001H99.8337Z" fill="#233E95"/>
<path d="M102.875 51.0398L103.293 48.938H104.186L103.879 50.3814L102.875 51.0398Z" fill="#233E95"/>
<path d="M106.585 48.4314L107.422 44.3291H108.287L107.45 48.5074C107.422 48.5834 107.422 48.6593 107.422 48.7353C107.422 49.0138 107.561 49.1658 107.868 49.1658C108.036 49.1658 108.175 49.1151 108.287 48.9885C108.398 48.8872 108.482 48.7353 108.51 48.5327L109.347 44.3291H110.212L109.375 48.558C109.291 48.9885 109.096 49.343 108.817 49.5709C108.566 49.7988 108.203 49.9255 107.757 49.9255C107.366 49.9255 107.059 49.8242 106.836 49.5963C106.641 49.419 106.557 49.1658 106.557 48.8366C106.557 48.6846 106.557 48.558 106.585 48.4314Z" fill="#233E95"/>
<path d="M109.933 49.8243L110.742 45.7474H111.523L111.467 46.0512C111.579 45.9246 111.69 45.8486 111.774 45.798C111.886 45.722 112.053 45.6967 112.193 45.6967C112.527 45.6967 112.778 45.8233 112.918 46.1019C113.03 45.9753 113.169 45.874 113.336 45.7727C113.476 45.6967 113.643 45.6714 113.811 45.6714C114.118 45.6714 114.341 45.7727 114.48 46.0006C114.564 46.1272 114.592 46.2791 114.62 46.4817C114.62 46.5577 114.592 46.6843 114.564 46.9122L113.978 49.799H113.169L113.755 46.9122C113.783 46.8109 113.783 46.7349 113.783 46.659C113.783 46.5577 113.755 46.4817 113.699 46.4311C113.643 46.3804 113.56 46.3551 113.476 46.3551C113.197 46.3551 113.03 46.5577 112.974 46.9122L112.388 49.799H111.579L112.165 46.9122C112.193 46.8109 112.193 46.7349 112.193 46.659C112.193 46.5577 112.165 46.4817 112.109 46.4311C112.053 46.3804 111.969 46.3551 111.886 46.3551C111.607 46.3551 111.439 46.5577 111.356 46.9122L110.77 49.799L109.933 49.8243Z" fill="#233E95"/>
<path d="M118.051 45.6968L117.242 49.7738H116.461L116.517 49.4699C116.405 49.5965 116.293 49.6725 116.21 49.7231C116.07 49.7991 115.931 49.8244 115.791 49.8244C115.484 49.8244 115.261 49.7231 115.122 49.4952C115.038 49.3686 115.01 49.1913 114.982 49.0141C114.982 48.9381 115.01 48.8115 115.038 48.5836L115.624 45.6968H116.433L115.847 48.5836C115.819 48.6849 115.819 48.7608 115.819 48.8368C115.819 48.9381 115.847 49.0141 115.903 49.0647C115.959 49.1154 116.042 49.1407 116.154 49.1407C116.433 49.1407 116.6 48.9381 116.656 48.5836L117.242 45.6968H118.051Z" fill="#233E95"/>
<path d="M118.051 49.7736L118.86 45.6966H119.641L119.585 46.0004C119.697 45.8738 119.809 45.7979 119.892 45.7472C120.004 45.6713 120.171 45.6459 120.311 45.6459C120.646 45.6459 120.897 45.7725 121.036 46.0511C121.148 45.9245 121.287 45.8232 121.455 45.7219C121.594 45.6459 121.761 45.6206 121.929 45.6206C122.236 45.6206 122.459 45.7219 122.598 45.9498C122.682 46.0764 122.71 46.2284 122.738 46.4309C122.738 46.5069 122.71 46.6335 122.682 46.8614L122.096 49.7482H121.287L121.873 46.8614C121.901 46.7601 121.901 46.6842 121.901 46.6082C121.901 46.5069 121.873 46.4309 121.817 46.3803C121.761 46.3296 121.678 46.3043 121.594 46.3043C121.315 46.3043 121.148 46.5069 121.092 46.8614L120.506 49.7482H119.697L120.283 46.8614C120.311 46.7601 120.311 46.6842 120.311 46.6082C120.311 46.5069 120.283 46.4309 120.227 46.3803C120.171 46.3296 120.088 46.3043 120.004 46.3043C119.725 46.3043 119.558 46.5069 119.474 46.8614L118.888 49.7482L118.051 49.7736Z" fill="#233E95"/>
<path d="M124.439 48.6857C124.439 48.3059 124.523 47.9513 124.718 47.6475C124.914 47.3436 125.221 47.0397 125.611 46.7358C125.36 46.1787 125.248 45.7736 125.248 45.5203C125.248 45.1405 125.36 44.8113 125.583 44.5581C125.806 44.3048 126.113 44.1782 126.532 44.1782C126.867 44.1782 127.118 44.2795 127.285 44.4568C127.452 44.634 127.564 44.8873 127.564 45.1911C127.564 45.495 127.48 45.7736 127.341 46.0015C127.201 46.2294 126.95 46.4826 126.643 46.7612L126.532 46.8625L126.978 47.9007C127.146 47.6475 127.285 47.2929 127.397 46.8625H128.094C128.01 47.1663 127.899 47.4955 127.759 47.8247C127.62 48.1539 127.452 48.4325 127.285 48.6604L127.759 49.7746H126.922L126.699 49.2934C126.336 49.648 125.946 49.8252 125.527 49.8252C125.165 49.8252 124.886 49.7239 124.718 49.5214C124.523 49.2681 124.439 48.9896 124.439 48.6857ZM125.221 48.5084C125.221 48.863 125.388 49.0655 125.667 49.0655C125.89 49.0655 126.141 48.9136 126.42 48.6097L125.862 47.3942C125.444 47.7741 125.221 48.1539 125.221 48.5084ZM126.225 46.2041L126.336 46.1281C126.643 45.8495 126.783 45.571 126.783 45.2671C126.783 45.0139 126.671 44.8873 126.448 44.8873C126.309 44.8873 126.225 44.9379 126.141 45.0645C126.058 45.1911 126.03 45.3178 126.03 45.4697C126.03 45.647 126.085 45.9002 126.225 46.2041Z" fill="#00A9E0"/>
<path d="M132.781 49.6727H131.916V48.5585H130.633L130.159 49.6727H129.238L131.693 44.1523H132.53L132.781 49.6727ZM131.916 47.8242V45.4185L130.968 47.8242H131.916Z" fill="#00A9E0"/>
<path d="M133.478 49.4197C133.339 49.2677 133.255 49.0398 133.255 48.7866C133.255 48.6853 133.255 48.584 133.283 48.4827H134.092C134.092 48.5334 134.064 48.584 134.064 48.66C134.064 48.7613 134.092 48.8373 134.148 48.9132C134.232 48.9892 134.315 49.0398 134.455 49.0398C134.594 49.0398 134.706 48.9892 134.79 48.8879C134.901 48.7866 134.957 48.6347 134.957 48.4321C134.957 48.2295 134.845 48.0776 134.594 47.951L134.204 47.7484C133.841 47.5711 133.646 47.2672 133.646 46.8874C133.646 46.4316 133.785 46.0771 134.12 45.7985C134.343 45.5959 134.65 45.4946 135.041 45.4946C135.431 45.4946 135.738 45.5959 135.933 45.8238C136.073 45.9758 136.129 46.1783 136.129 46.4063C136.129 46.4822 136.129 46.5835 136.101 46.7101H135.32C135.32 46.6595 135.347 46.6088 135.347 46.5329C135.347 46.4569 135.32 46.3556 135.264 46.305C135.208 46.229 135.096 46.2037 134.985 46.2037C134.845 46.2037 134.762 46.229 134.678 46.305C134.566 46.4063 134.511 46.5582 134.511 46.7355C134.511 46.9127 134.622 47.0393 134.817 47.1406L135.208 47.3432C135.626 47.5458 135.85 47.875 135.85 48.3055C135.85 48.7613 135.71 49.1411 135.375 49.3944C135.124 49.5969 134.817 49.6982 134.427 49.6982C133.98 49.7236 133.674 49.6223 133.478 49.4197Z" fill="#00A9E0"/>
<path d="M136.436 49.2922C136.352 49.1402 136.296 48.963 136.296 48.7097C136.296 48.5071 136.352 48.1273 136.464 47.6209C136.575 47.1144 136.659 46.7345 136.743 46.4813C136.826 46.2281 136.938 46.0508 137.077 45.8989C137.3 45.6457 137.635 45.519 138.082 45.519C138.472 45.519 138.751 45.6203 138.919 45.8736C139.03 46.0255 139.086 46.2281 139.086 46.5066C139.086 46.7599 139.03 47.2157 138.891 47.8488H137.217C137.133 48.2539 137.105 48.5325 137.105 48.6844C137.105 48.7857 137.133 48.887 137.189 48.9376C137.245 48.9883 137.3 49.0136 137.412 49.0136C137.524 49.0136 137.635 48.9883 137.719 48.9123C137.803 48.8363 137.886 48.6844 137.942 48.4565H138.751C138.667 48.8363 138.528 49.1149 138.333 49.3428C138.109 49.596 137.775 49.7226 137.328 49.7226C136.91 49.7226 136.631 49.5707 136.436 49.2922ZM137.356 47.241H138.221C138.277 46.9371 138.333 46.7092 138.333 46.532C138.333 46.3041 138.221 46.1774 138.026 46.1774C137.886 46.1774 137.775 46.2281 137.691 46.3547C137.552 46.4813 137.44 46.7852 137.356 47.241Z" fill="#00A9E0"/>
<path d="M139.588 48.7352C139.588 48.6086 139.588 48.482 139.616 48.3554L140.034 46.2282H139.616L139.728 45.6458H140.146L140.369 44.481H141.178L140.955 45.6458H141.513L141.401 46.2282H140.844L140.425 48.3047C140.397 48.3807 140.397 48.482 140.397 48.5579C140.397 48.8112 140.565 48.9378 140.871 48.9378L140.732 49.6215C140.313 49.6215 140.007 49.5455 139.811 49.3683C139.672 49.2163 139.588 48.9884 139.588 48.7352Z" fill="#00A9E0"/>
<path d="M142.964 48.1023H143.828C143.801 48.2796 143.773 48.4062 143.773 48.4822C143.773 48.6088 143.801 48.7101 143.884 48.786C143.968 48.8873 144.079 48.9126 144.247 48.9126C144.414 48.9126 144.554 48.862 144.693 48.7607C144.777 48.6847 144.833 48.6088 144.861 48.5328C144.889 48.4568 144.944 48.3049 144.972 48.1276C145 47.9504 145.028 47.7984 145.028 47.6465C145.028 47.4439 144.889 47.292 144.637 47.1654L144.107 46.9121C143.717 46.7349 143.494 46.431 143.494 46.0512C143.494 45.8486 143.522 45.646 143.549 45.4434C143.661 44.9623 143.828 44.6078 144.052 44.3798C144.303 44.1266 144.665 44 145.084 44C145.502 44 145.809 44.1013 146.06 44.3292C146.2 44.4811 146.283 44.6837 146.283 44.9876C146.283 45.1395 146.256 45.3421 146.228 45.5447H145.363C145.391 45.3928 145.419 45.2661 145.419 45.1395C145.419 45.0129 145.391 44.9116 145.335 44.8357C145.279 44.7597 145.167 44.709 145.028 44.709C144.861 44.709 144.749 44.7597 144.637 44.861C144.526 44.9623 144.442 45.1649 144.386 45.4181C144.358 45.5447 144.358 45.6713 144.358 45.7979C144.358 46.0005 144.47 46.1525 144.665 46.2284L145.14 46.431C145.419 46.5576 145.614 46.6842 145.725 46.8362C145.837 46.9628 145.893 47.1654 145.893 47.368C145.893 47.5959 145.865 47.8491 145.809 48.1023C145.753 48.4062 145.67 48.6594 145.614 48.8114C145.53 48.9886 145.446 49.1152 145.307 49.2418C145.056 49.4951 144.665 49.6217 144.163 49.6217C143.717 49.6217 143.382 49.5204 143.159 49.2925C142.991 49.1152 142.908 48.8873 142.88 48.6088C142.88 48.5328 142.908 48.3555 142.964 48.1023Z" fill="#00A9E0"/>
<path d="M146.479 49.217C146.395 49.065 146.339 48.8878 146.339 48.6345C146.339 48.432 146.395 48.0521 146.507 47.5456C146.618 47.0392 146.702 46.6593 146.786 46.4061C146.869 46.1529 146.981 45.9756 147.12 45.8237C147.344 45.5705 147.678 45.4438 148.125 45.4438C148.515 45.4438 148.794 45.5451 148.962 45.7984C149.073 45.9503 149.129 46.1529 149.129 46.4314C149.129 46.6847 149.073 47.1405 148.934 47.7736H147.26C147.176 48.1787 147.148 48.4573 147.148 48.6092C147.148 48.7105 147.176 48.8118 147.232 48.8624C147.288 48.9131 147.344 48.9384 147.455 48.9384C147.567 48.9384 147.678 48.9131 147.762 48.8371C147.846 48.7611 147.93 48.6092 147.985 48.3813H148.794C148.711 48.7612 148.571 49.0397 148.376 49.2676C148.153 49.5208 147.818 49.6475 147.372 49.6475C146.953 49.6475 146.646 49.5208 146.479 49.217ZM147.372 47.1911H148.236C148.292 46.8873 148.348 46.6593 148.348 46.4821C148.348 46.2542 148.236 46.1276 148.041 46.1276C147.902 46.1276 147.79 46.1782 147.706 46.3048C147.567 46.4314 147.483 46.71 147.372 47.1911Z" fill="#00A9E0"/>
<path d="M149.269 49.5709L150.078 45.4939H150.859L150.775 45.9244C150.887 45.7725 150.998 45.6712 151.166 45.5699C151.361 45.4686 151.584 45.418 151.863 45.418L151.696 46.1777H151.417C151.221 46.1777 151.054 46.2536 150.887 46.3802C150.719 46.5069 150.636 46.6841 150.58 46.912L150.05 49.5709H149.269Z" fill="#00A9E0"/>
<path d="M152.337 49.5462L152.17 45.4692H153.035V48.3054L154.179 45.4692H155.043L153.23 49.5462H152.337Z" fill="#00A9E0"/>
<path d="M154.681 49.546L155.49 45.5703H156.299L155.49 49.546H154.681ZM155.573 44.9372L155.741 44.1016H156.606L156.438 44.9372H155.573Z" fill="#00A9E0"/>
<path d="M156.606 47.47C156.717 46.9635 156.801 46.5837 156.885 46.3304C156.968 46.0772 157.08 45.8746 157.219 45.748C157.443 45.4948 157.777 45.3682 158.224 45.3682C158.67 45.3682 158.949 45.4948 159.116 45.7733C159.2 45.9253 159.256 46.1025 159.256 46.3304C159.256 46.4317 159.256 46.533 159.228 46.609H158.419C158.419 46.533 158.447 46.457 158.447 46.3811C158.447 46.2798 158.419 46.1785 158.363 46.1279C158.307 46.0772 158.252 46.0519 158.14 46.0519C158.001 46.0519 157.889 46.1025 157.805 46.2291C157.694 46.3558 157.582 46.7609 157.443 47.47C157.331 48.0271 157.275 48.4069 157.275 48.5335C157.275 48.6601 157.303 48.7614 157.387 48.8121C157.443 48.8627 157.526 48.8881 157.61 48.8881C157.722 48.8881 157.833 48.8627 157.917 48.7868C158.001 48.7108 158.084 48.5589 158.14 48.3309H158.949C158.865 48.7108 158.726 48.9893 158.531 49.1919C158.307 49.4452 157.973 49.5718 157.526 49.5718C157.108 49.5718 156.829 49.4452 156.661 49.1919C156.55 49.04 156.494 48.8121 156.494 48.5842C156.438 48.4069 156.494 48.0271 156.606 47.47Z" fill="#00A9E0"/>
<path d="M159.563 49.1413C159.479 48.9893 159.423 48.8121 159.423 48.5589C159.423 48.3563 159.479 47.9764 159.591 47.47C159.702 46.9635 159.786 46.5837 159.87 46.3304C159.953 46.0772 160.065 45.8999 160.204 45.748C160.428 45.4948 160.762 45.3682 161.209 45.3682C161.599 45.3682 161.878 45.4695 162.046 45.7227C162.157 45.8746 162.213 46.0772 162.213 46.3558C162.213 46.609 162.157 47.0648 162.018 47.6979H160.344C160.26 48.103 160.232 48.3816 160.232 48.5335C160.232 48.6348 160.26 48.7361 160.316 48.7868C160.372 48.8374 160.428 48.8627 160.539 48.8627C160.651 48.8627 160.762 48.8374 160.846 48.7614C160.93 48.6855 161.014 48.5335 161.069 48.3056H161.878C161.795 48.6855 161.655 48.964 161.46 49.1919C161.237 49.4452 160.902 49.5718 160.456 49.5718C160.037 49.5718 159.73 49.4198 159.563 49.1413ZM160.456 47.0901H161.32C161.376 46.7863 161.432 46.5583 161.432 46.3811C161.432 46.1532 161.32 46.0266 161.125 46.0266C160.986 46.0266 160.874 46.0772 160.79 46.2038C160.679 46.3304 160.567 46.6343 160.456 47.0901Z" fill="#00A9E0"/>
<path d="M162.604 49.2419C162.464 49.09 162.38 48.8621 162.38 48.6089C162.38 48.5076 162.38 48.4063 162.408 48.305H163.217C163.217 48.3556 163.189 48.4063 163.189 48.4823C163.189 48.5836 163.217 48.6595 163.273 48.7355C163.357 48.8115 163.44 48.8621 163.58 48.8621C163.719 48.8621 163.831 48.8115 163.915 48.7102C164.026 48.6089 164.082 48.4569 164.082 48.2544C164.082 48.0518 163.971 47.8998 163.719 47.7732L163.329 47.5706C162.966 47.3934 162.771 47.0895 162.771 46.7097C162.771 46.2538 162.91 45.8993 163.245 45.6208C163.468 45.4182 163.775 45.3169 164.166 45.3169C164.556 45.3169 164.863 45.4182 165.059 45.6461C165.198 45.798 165.254 46.0006 165.254 46.2285C165.254 46.3045 165.254 46.4058 165.226 46.5324H164.445C164.445 46.4817 164.473 46.4311 164.473 46.3551C164.473 46.2792 164.445 46.1779 164.389 46.1272C164.333 46.0513 164.222 46.0259 164.11 46.0259C163.971 46.0259 163.887 46.0513 163.803 46.1272C163.692 46.2285 163.636 46.3805 163.636 46.5577C163.636 46.735 163.747 46.8616 163.943 46.9629L164.333 47.1655C164.752 47.368 164.975 47.6973 164.975 48.1277C164.975 48.5836 164.835 48.9634 164.501 49.2166C164.25 49.4192 163.943 49.5205 163.552 49.5205C163.106 49.5458 162.799 49.4445 162.604 49.2419Z" fill="#00A9E0"/>
</svg>
